<svg width="143" height="32" viewBox="0 0 143 32" fill="none" xmlns="http://www.w3.org/2000/svg">
<path d="M93.923 25.189C92.681 25.189 91.565 24.973 90.575 24.541C89.603 24.091 88.838 23.479 88.28 22.705C87.722 21.913 87.434 21.004 87.416 19.978H90.035C90.125 20.86 90.485 21.607 91.115 22.219C91.763 22.813 92.699 23.11 93.923 23.11C95.093 23.11 96.011 22.822 96.677 22.246C97.361 21.652 97.703 20.896 97.703 19.978C97.703 19.258 97.505 18.673 97.109 18.223C96.713 17.773 96.218 17.431 95.624 17.197C95.03 16.963 94.229 16.711 93.221 16.441C91.979 16.117 90.98 15.793 90.224 15.469C89.486 15.145 88.847 14.641 88.307 13.957C87.785 13.255 87.524 12.319 87.524 11.149C87.524 10.123 87.785 9.214 88.307 8.422C88.829 7.63 89.558 7.018 90.494 6.586C91.448 6.154 92.537 5.938 93.761 5.938C95.525 5.938 96.965 6.379 98.081 7.261C99.215 8.143 99.854 9.313 99.998 10.771H97.298C97.208 10.051 96.83 9.421 96.164 8.881C95.498 8.323 94.616 8.044 93.518 8.044C92.492 8.044 91.655 8.314 91.007 8.854C90.359 9.376 90.035 10.114 90.035 11.068C90.035 11.752 90.224 12.31 90.602 12.742C90.998 13.174 91.475 13.507 92.033 13.741C92.609 13.957 93.41 14.209 94.436 14.497C95.678 14.839 96.677 15.181 97.433 15.523C98.189 15.847 98.837 16.36 99.377 17.062C99.917 17.746 100.187 18.682 100.187 19.87C100.187 20.788 99.944 21.652 99.458 22.462C98.972 23.272 98.252 23.929 97.298 24.433C96.344 24.937 95.219 25.189 93.923 25.189ZM127.455 6.181L122.001 25H119.247L114.873 9.853L110.337 25L107.61 25.027L102.345 6.181H104.964L109.068 22.138L113.604 6.181H116.358L120.678 22.084L124.809 6.181H127.455ZM142.725 11.689C142.725 13.255 142.185 14.56 141.105 15.604C140.043 16.63 138.414 17.143 136.218 17.143H132.6V25H130.143V6.181H136.218C138.342 6.181 139.953 6.694 141.051 7.72C142.167 8.746 142.725 10.069 142.725 11.689ZM136.218 15.118C137.586 15.118 138.594 14.821 139.242 14.227C139.89 13.633 140.214 12.787 140.214 11.689C140.214 9.367 138.882 8.206 136.218 8.206H132.6V15.118H136.218Z" fill="#00568D"/>
<path d="M50.8398 11.3748L43.4578 4H23.9814L39.9196 19.925L50.8398 11.3748Z" fill="#5CBAF7"/>
<path d="M39.92 19.925L23.9819 4L0 27.9608H7.47464L23.9819 11.4681L35.729 23.2056L39.92 19.925Z" fill="#45A9EA"/>
<path d="M80.9481 27.9606L63.4998 10.5277H44.0227L61.471 27.9606H80.9481Z" fill="#73C5FB"/>
<path d="M34.0486 27.9606L44.0222 17.9958L53.9958 27.9606H61.4705L44.0222 10.5277L26.574 27.9606H34.0486Z" fill="#45A9EA"/>
</svg>
